Description
Cock-loving sluts with super-sized booties need their cheeks oiled up

before they take a big dick in their tight asses...

and they don't care what you use. Tanning oil, motor oil, cooking oil, massage oil.

It doesn't fucking matter, as long as it makes their asses glisten and helps you

slide right in. It's gonna get messy!

Format : Matroska
Format version : Version 2
File size : 1.06 GiB
Duration : 2h 2mn
Overall bit rate : 1 231 Kbps
Encoded date : UTC 2013-05-11 09:08:10
Writing application : mkvmerge v5.8.0 ('No Sleep / Pillow') built on Sep 2 2012 15:37:04
Writing library : libebml v1.2.3 + libmatroska v1.3.0

Video
ID : 1
Format : AVC
Format/Info : Advanced Video Codec
Format profile : High@L4.1
Format settings, CABAC : Yes
Format settings, ReFrames : 4 frames
Muxing mode : Header stripping
Codec ID : V_MPEG4/ISO/AVC
Duration : 2h 2mn
Bit rate : 1 015 Kbps
Width : 720 pixels
Height : 400 pixels
Display aspect ratio : 16:9
Frame rate mode : Constant
Frame rate : 29.970 fps
Color space : YUV
Chroma subsampling : 4:2:0
Bit depth : 8 bits
Scan type : Progressive
Bits/(Pixel*Frame) : 0.118
Stream size : 892 MiB (82%)
Title : Oil n Asses ( by fantasma )
Writing library : x264 core 130 r2273 b3065e6
Encoding settings : cabac=1 / ref=3 / deblock=1:0:0 / analyse=0x3:0x113 / me=hex / subme=7 / psy=1 / psy_rd=1.00:0.00 / mixed_ref=1 / me_range=16 / chroma_me=1 / trellis=1 / 8x8dct=1 / cqm=0 / deadzone=21,11 / fast_pskip=1 / chroma_qp_offset=-2 / threads=3 / lookahead_threads=1 / sliced_threads=0 / nr=0 / decimate=1 / interlaced=0 / bluray_compat=0 / constrained_intra=0 / bframes=3 / b_pyramid=2 / b_adapt=1 / b_bias=0 / direct=1 / weightb=1 / open_gop=0 / weightp=2 / keyint=300 / keyint_min=29 / scenecut=40 / intra_refresh=0 / rc_lookahead=40 / rc=crf / mbtree=1 / crf=23.0 / qcomp=0.60 / qpmin=0 / qpmax=69 / qpstep=4 / vbv_maxrate=62500 / vbv_bufsize=78125 / crf_max=0.0 / nal_hrd=none / ip_ratio=1.40 / aq=1:1.00
Language : English
Default : Yes
Forced : No

Audio
ID : 2
Format : AC-3
Format/Info : Audio Coding 3
Mode extension : CM (complete main)
Format settings, Endianness : Big
Muxing mode : Header stripping
Codec ID : A_AC3
Duration : 2h 2mn
Bit rate mode : Constant
Bit rate : 192 Kbps
Channel(s) : 2 channels
Channel positions : Front: L R
Sampling rate : 48.0 KHz
Bit depth : 16 bits
Compression mode : Lossy
Stream size : 169 MiB (16%)
Title : by fantasma
Language : Portuguese
Default : Yes
Forced : No

Text
ID : 3
Format : UTF-8
Codec ID : S_TEXT/UTF8
Codec ID/Info : UTF-8 Plain Text
Title : Credito
Language : Portuguese
Default : Yes
Forced : No

Menu
00:00:00.000 : en:Chapter 01
00:05:00.067 : en:Chapter 02
00:09:59.834 : en:Chapter 03
00:14:59.601 : en:Chapter 04
00:19:59.901 : en:Chapter 05
00:24:59.968 : en:Chapter 06
00:29:59.735 : en:Chapter 07
00:34:59.502 : en:Chapter 08
00:39:59.802 : en:Chapter 09
00:44:59.469 : en:Chapter 10
00:49:59.769 : en:Chapter 11
00:53:57.952 : en:Chapter 01
00:58:57.719 : en:Chapter 02
01:03:58.019 : en:Chapter 03
01:08:57.786 : en:Chapter 04
01:13:57.553 : en:Chapter 05
01:18:57.853 : en:Chapter 06
01:23:57.620 : en:Chapter 07
01:28:57.920 : en:Chapter 08
01:33:57.687 : en:Chapter 09
01:38:57.754 : en:Chapter 10
01:43:57.521 : en:Chapter 11
01:48:57.821 : en:Chapter 12
01:53:57.588 : en:Chapter 13
01:58:57.355 : en:Chapter 14
